<svg xmlns="http://www.w3.org/2000/svg">
  <symbol id="instagram" viewBox="0 0 32 32">
    <g clip-path="url(#clip0_2108_466)">
      <path
        d="M21.332 5.33301H10.6654C7.71985 5.33301 5.33203 7.72082 5.33203 10.6663V21.333C5.33203 24.2785 7.71985 26.6663 10.6654 26.6663H21.332C24.2775 26.6663 26.6654 24.2785 26.6654 21.333V10.6663C26.6654 7.72082 24.2775 5.33301 21.332 5.33301Z"
        stroke-width="2" stroke-linecap="round" stroke-linejoin="round"/>
      <path
        d="M16 20C18.2091 20 20 18.2091 20 16C20 13.7909 18.2091 12 16 12C13.7909 12 12 13.7909 12 16C12 18.2091 13.7909 20 16 20Z"
        stroke-width="2" stroke-linecap="round" stroke-linejoin="round"/>
      <path d="M22 10V10.001" stroke-width="2" stroke-linecap="round" stroke-linejoin="round"/>
    </g>
    <defs>
      <clipPath id="clip0_2108_466">
        <rect width="32" height="32" fill="white"/>
      </clipPath>
    </defs>
  </symbol>
  <symbol id="tiktok" viewBox="0 0 32 32">
    <g clip-path="url(#clip0_2108_467)">
      <path
        d="M12.0013 15.9997C10.9465 15.9997 9.91533 16.3125 9.03826 16.8985C8.1612 17.4845 7.47761 18.3175 7.07395 19.292C6.67028 20.2666 6.56466 21.3389 6.77045 22.3735C6.97624 23.4081 7.48419 24.3584 8.23007 25.1042C8.97595 25.8501 9.92626 26.3581 10.9608 26.5639C11.9954 26.7697 13.0677 26.664 14.0423 26.2604C15.0168 25.8567 15.8498 25.1731 16.4358 24.296C17.0218 23.419 17.3346 22.3878 17.3346 21.333V5.33301C17.3346 7.10112 18.037 8.79681 19.2873 10.0471C20.5375 11.2973 22.2332 11.9997 24.0013 11.9997"
        stroke-width="2" stroke-linecap="round" stroke-linejoin="round"/>
    </g>
    <defs>
      <clipPath id="clip0_2108_467">
        <rect width="32" height="32" fill="white"/>
      </clipPath>
    </defs>
  </symbol>
  <symbol id="linkedin" viewBox="0 0 32 32">
    <g clip-path="url(#clip0_2108_468)">
      <path
        d="M23.9987 5.33301H7.9987C6.52594 5.33301 5.33203 6.52692 5.33203 7.99967V23.9997C5.33203 25.4724 6.52594 26.6663 7.9987 26.6663H23.9987C25.4715 26.6663 26.6654 25.4724 26.6654 23.9997V7.99967C26.6654 6.52692 25.4715 5.33301 23.9987 5.33301Z"
        stroke-width="2" stroke-linecap="round" stroke-linejoin="round"/>
      <path d="M10.668 14.667V21.3337" stroke-width="2" stroke-linecap="round"
            stroke-linejoin="round"/>
      <path d="M10.668 10.667V10.6803" stroke-width="2" stroke-linecap="round"
            stroke-linejoin="round"/>
      <path d="M16 21.3337V14.667" stroke-width="2" stroke-linecap="round" stroke-linejoin="round"/>
      <path
        d="M21.3333 21.3337V17.3337C21.3333 16.6264 21.0524 15.9481 20.5523 15.448C20.0522 14.9479 19.3739 14.667 18.6667 14.667C17.9594 14.667 17.2811 14.9479 16.781 15.448C16.281 15.9481 16 16.6264 16 17.3337"
        stroke-width="2" stroke-linecap="round" stroke-linejoin="round"/>
    </g>
    <defs>
      <clipPath id="clip0_2108_468">
        <rect width="32" height="32" fill="white"/>
      </clipPath>
    </defs>
  </symbol>
  <symbol id="facebook" viewBox="0 0 32 32">
    <g clip-path="url(#clip0_2108_469)">
      <path
        d="M9.33203 13.3333V18.6667H13.332V28H18.6654V18.6667H22.6654L23.9987 13.3333H18.6654V10.6667C18.6654 10.313 18.8058 9.97391 19.0559 9.72386C19.3059 9.47381 19.6451 9.33333 19.9987 9.33333H23.9987V4H19.9987C18.2306 4 16.5349 4.70238 15.2847 5.95262C14.0344 7.20286 13.332 8.89856 13.332 10.6667V13.3333H9.33203Z"
        stroke-width="2" stroke-linecap="round" stroke-linejoin="round"/>
    </g>
    <defs>
      <clipPath id="clip0_2108_469">
        <rect width="32" height="32" fill="white"/>
      </clipPath>
    </defs>
  </symbol>
  <symbol id="telegram" viewBox="0 0 32 32">
    <g clip-path="url(#clip0_2108_470)">
      <path d="M20 13.333L14.6667 18.6663L22.6667 26.6663L28 5.33301L4 14.6663L9.33333 17.333L12 25.333L16 19.9997"
            stroke-width="2" stroke-linecap="round" stroke-linejoin="round"/>
    </g>
    <defs>
      <clipPath id="clip0_2108_470">
        <rect width="32" height="32" fill="white"/>
      </clipPath>
    </defs>
  </symbol>
  <symbol id="youtube" viewBox="0 0 32 32">
    <g clip-path="url(#clip0_2108_471)">
      <path
        d="M22.6667 6.66699H9.33333C6.38781 6.66699 4 9.05481 4 12.0003V20.0003C4 22.9458 6.38781 25.3337 9.33333 25.3337H22.6667C25.6122 25.3337 28 22.9458 28 20.0003V12.0003C28 9.05481 25.6122 6.66699 22.6667 6.66699Z"
        stroke-width="2" stroke-linecap="round" stroke-linejoin="round"/>
      <path d="M13.332 12L19.9987 16L13.332 20V12Z" stroke-width="2" stroke-linecap="round"
            stroke-linejoin="round"/>
    </g>
    <defs>
      <clipPath id="clip0_2108_471">
        <rect width="32" height="32" fill="white"/>
      </clipPath>
    </defs>
  </symbol>
</svg>
