<svg width="126" height="96" viewBox="0 0 126 96" fill="none" xmlns="http://www.w3.org/2000/svg">
<path d="M107.679 47.7226C107.713 73.8962 86.5069 95.4678 59.9246 95.459C33.467 95.4486 12.1812 73.9981 12.2134 47.6685C12.2457 21.3982 33.5149 -0.0252443 59.9882 2.23264e-05C86.5443 0.0261602 107.7 21.5829 107.679 47.7226Z" fill="#242021"/>
<path d="M106.623 47.7374C106.601 73.62 85.6048 94.4248 59.913 94.4074C34.094 94.3891 13.1262 73.3473 13.2752 47.4464C13.4216 21.9044 34.2578 0.905257 60.2493 1.06296C85.7921 1.2163 106.6 21.9558 106.623 47.7374Z" fill="#171717"/>
<path d="M98.7298 47.7173C98.7768 69.0397 81.4204 86.5931 59.7957 86.5173C38.4367 86.4397 21.075 69.0607 21.156 47.5814C21.2353 26.2773 38.5046 8.97752 59.8741 8.9418C81.491 8.89736 98.769 26.4611 98.7298 47.7173Z" fill="#FEFEFE"/>
<path d="M90.186 47.7443C90.2052 64.3253 76.732 78.0146 59.8661 77.9702C43.1379 77.9266 29.6786 64.3402 29.7056 47.6764C29.7291 31.0274 43.2206 17.4357 60.0273 17.4836C76.8897 17.5307 90.2261 31.2505 90.186 47.7443Z" fill="#242021"/>
<path d="M126 56.2996C102.038 41.9752 114.417 27.8861 117.331 8.49478L5.54797 34.502C-11.047 72.294 23.4418 66.8787 15.3061 83.8154L126 56.2996Z" fill="#242021"/>
<path d="M8.92529 57.2094L8.24121 39.061L15.5646 37.307C17.8078 36.7698 19.6562 36.8416 21.1099 37.5224C22.5635 38.2032 23.5017 39.4261 23.9243 41.191C24.272 42.6424 24.2298 43.9955 23.7977 45.25C23.3657 46.5045 22.5775 47.5827 21.4332 48.4846C20.2889 49.3866 18.8425 50.0469 17.0941 50.4656L11.4779 51.8107L13.5543 49.0113L13.824 56.0361L8.92529 57.2094ZM13.5668 49.61L11.3205 47.7674L16.3924 46.5527C17.4645 46.2959 18.2363 45.8407 18.7076 45.1872C19.1789 44.5337 19.302 43.7368 19.0768 42.7967C18.903 42.0709 18.5355 41.5921 17.9742 41.3603C17.4129 41.1285 16.7034 41.1153 15.8457 41.3207L11.1449 42.4466L13.1857 39.4987L13.5668 49.61Z" fill="#FF1A1A"/>
<path d="M26.9255 52.8984L26.2414 34.75L33.639 32.9782C35.8657 32.4449 37.6976 32.5207 39.1348 33.2055C40.5884 33.8863 41.5226 35.0926 41.9374 36.8245C42.285 38.276 42.2346 39.631 41.7861 40.8895C41.3501 42.1275 40.5599 43.1975 39.4156 44.0994C38.2713 45.0013 36.8249 45.6616 35.0765 46.0804L29.4603 47.4254L31.5544 44.7003L31.8242 51.7251L26.9255 52.8984ZM37.7869 50.2971L32.7379 44.8354L37.8098 43.6207L42.9083 49.0705L37.7869 50.2971ZM31.567 45.2989L29.3207 43.4564L34.3926 42.2416C35.4812 41.9809 36.2612 41.5238 36.7325 40.8703C37.2038 40.2167 37.3269 39.4199 37.1018 38.4797C36.9279 37.754 36.5604 37.2752 35.9991 37.0434C35.4378 36.8116 34.7283 36.7984 33.8706 37.0038L29.1451 38.1355L31.2106 35.1818L31.567 45.2989Z" fill="#FF1A1A"/>
<path d="M54.6749 46.6186C52.8935 47.0453 51.2825 47.091 49.8419 46.7559C48.3974 46.4042 47.1924 45.7423 46.2271 44.7701C45.2618 43.798 44.5994 42.5614 44.2399 41.0604C43.8765 39.543 43.8085 38.0943 44.0361 36.7143C44.2598 35.3178 44.7393 34.0432 45.4747 32.8904C46.2062 31.7211 47.1705 30.7228 48.3676 29.8955C49.5811 29.0642 50.9796 28.4589 52.5631 28.0797C54.3444 27.6531 55.9574 27.6156 57.402 27.9672C58.8426 28.3023 60.0455 28.956 61.0109 29.9282C61.9762 30.9004 62.6386 32.1369 62.9981 33.6379C63.3615 35.1554 63.4314 36.6123 63.2078 38.0088C62.9802 39.3887 62.5006 40.6634 61.7691 41.8326C61.0337 42.9854 60.0592 43.9775 58.8456 44.8088C57.6486 45.6361 56.2583 46.2394 54.6749 46.6186ZM54.1237 42.4604C54.9814 42.2549 55.7026 41.9165 56.2873 41.4451C56.8885 40.9698 57.3529 40.3964 57.6804 39.725C58.0205 39.0331 58.2273 38.2947 58.3009 37.5097C58.3745 36.7247 58.3145 35.9281 58.1209 35.1199C57.9353 34.3447 57.6084 33.7079 57.1402 33.2096C56.6886 32.7074 56.1201 32.3727 55.4347 32.2054C54.7619 32.0178 53.9885 32.0286 53.1143 32.238C52.2731 32.4394 51.5519 32.7779 50.9507 33.2532C50.3495 33.7286 49.8788 34.3122 49.5387 35.004C49.2112 35.6754 49.0107 36.4036 48.9371 37.1886C48.8635 37.9736 48.9235 38.7702 49.117 39.5784C49.2987 40.3372 49.6174 40.9759 50.073 41.4946C50.5411 41.9929 51.1116 42.3359 51.7844 42.5236C52.4697 42.6908 53.2495 42.6697 54.1237 42.4604Z" fill="#FF1A1A"/>
<path d="M66.1634 43.5009L65.4794 25.3525L69.4627 24.3985L77.0642 35.0564L74.9612 35.5601L81.3879 21.5424L85.5692 20.541L86.3028 38.6775L81.7751 39.7619L81.3162 28.7798L82.1268 28.5595L77.3829 39.0088L75.2305 39.5243L69.3791 31.5864L70.2629 31.4533L70.6663 42.4225L66.1634 43.5009Z" fill="#FF1A1A"/>
<path d="M99.2042 35.9539C97.4228 36.3805 95.8118 36.4263 94.3712 36.0911C92.9267 35.7395 91.7217 35.0776 90.7564 34.1054C89.7911 33.1332 89.1287 31.8967 88.7692 30.3957C88.4058 28.8782 88.3378 27.4295 88.5654 26.0496C88.7891 24.6531 89.2686 23.3785 90.004 22.2257C90.7355 21.0564 91.6998 20.0581 92.8969 19.2307C94.1104 18.3995 95.5089 17.7942 97.0924 17.415C98.8737 16.9883 100.487 16.9508 101.931 17.3025C103.372 17.6376 104.575 18.2913 105.54 19.2635C106.505 20.2356 107.168 21.4722 107.527 22.9732C107.891 24.4906 107.961 25.9476 107.737 27.344C107.509 28.724 107.03 29.9986 106.298 31.1679C105.563 32.3207 104.588 33.3128 103.375 34.144C102.178 34.9714 100.788 35.5747 99.2042 35.9539ZM98.653 31.7956C99.5107 31.5902 100.232 31.2518 100.817 30.7804C101.418 30.305 101.882 29.7317 102.21 29.0603C102.55 28.3684 102.757 27.63 102.83 26.845C102.904 26.06 102.844 25.2634 102.65 24.4552C102.465 23.6799 102.138 23.0432 101.67 22.5449C101.218 22.0427 100.649 21.7079 99.964 21.5407C99.2912 21.353 98.5178 21.3639 97.6436 21.5732C96.8024 21.7747 96.0812 22.1131 95.48 22.5885C94.8788 23.0638 94.4081 23.6474 94.0681 24.3393C93.7405 25.0107 93.54 25.7389 93.4664 26.5239C93.3928 27.3089 93.4528 28.1055 93.6463 28.9137C93.828 29.6724 94.1467 30.3112 94.6023 30.8299C95.0704 31.3282 95.6409 31.6712 96.3137 31.8588C96.999 32.0261 97.7788 32.005 98.653 31.7956Z" fill="#FF1A1A"/>
<path d="M36.8438 73.3009C35.8541 73.5379 34.8859 73.6826 33.9393 73.7349C32.9965 73.8037 32.1205 73.7868 31.3111 73.6842C30.4977 73.5651 29.7857 73.3955 29.1749 73.1755L30.2278 69.0517C30.9084 69.2723 31.5938 69.4395 32.2838 69.5533C32.9863 69.6467 33.6832 69.6803 34.3746 69.6543C35.066 69.6282 35.7415 69.5362 36.4013 69.3782C37.0281 69.228 37.5503 69.0419 37.968 68.8198C38.3817 68.5812 38.6764 68.3188 38.852 68.0326C39.0276 67.7463 39.0779 67.4465 39.0029 67.1332C38.9199 66.7868 38.698 66.5521 38.3372 66.4293C37.989 66.286 37.5497 66.1993 37.0193 66.1694C36.4889 66.1395 35.9008 66.1233 35.255 66.1211C34.6217 66.0983 33.9742 66.0528 33.3126 65.9846C32.6635 65.8959 32.052 65.7458 31.4782 65.5345C30.9004 65.3066 30.3916 64.9663 29.9518 64.5135C29.5285 64.0568 29.2241 63.4409 29.0384 62.6656C28.7382 61.4121 28.8156 60.2425 29.2706 59.1568C29.7257 58.0712 30.5105 57.1246 31.6251 56.317C32.7562 55.5055 34.1712 54.8962 35.8701 54.4894C37.1071 54.1931 38.2933 54.0485 39.4286 54.0557C40.56 54.0463 41.5706 54.1879 42.4604 54.4806L41.55 58.5442C40.7711 58.2773 39.9436 58.1354 39.0675 58.1185C38.204 58.0812 37.3434 58.1652 36.4857 58.3706C35.8259 58.5286 35.2746 58.7391 34.8319 59.0021C34.4056 59.2612 34.1003 59.5523 33.9161 59.8755C33.7445 60.1782 33.6962 60.4862 33.7712 60.7996C33.8502 61.1295 34.0639 61.3661 34.4121 61.5094C34.7604 61.6527 35.1997 61.7394 35.73 61.7693C36.2769 61.7953 36.867 61.8197 37.5003 61.8424C38.1461 61.8447 38.7916 61.8819 39.4368 61.9541C40.078 62.0098 40.6957 62.1497 41.29 62.3736C41.8803 62.581 42.3851 62.9048 42.8045 63.345C43.2238 63.7852 43.5244 64.3847 43.7061 65.1434C44.0024 66.3805 43.923 67.5418 43.4679 68.6275C43.0129 69.7131 42.2198 70.6617 41.0887 71.4732C39.9576 72.2848 38.5426 72.894 36.8438 73.3009Z" fill="#FFBC00"/>
<path d="M55.7574 68.7711C53.9761 69.1977 52.3651 69.2435 50.9245 68.9083C49.4799 68.5567 48.275 67.8948 47.3096 66.9226C46.3443 65.9504 45.6819 64.7138 45.3224 63.2129C44.959 61.6954 44.8911 60.2467 45.1187 58.8667C45.3423 57.4703 45.8218 56.1957 46.5573 55.0429C47.2888 53.8736 48.2531 52.8753 49.4501 52.0479C50.6637 51.2166 52.0622 50.6114 53.6456 50.2321C55.427 49.8055 57.04 49.768 58.4845 50.1196C59.9251 50.4548 61.1281 51.1084 62.0934 52.0806C63.0587 53.0528 63.7211 54.2894 64.0806 55.7903C64.444 57.3078 64.5139 58.7648 64.2903 60.1612C64.0627 61.5412 63.5832 62.8158 62.8517 63.9851C62.1162 65.1379 61.1417 66.1299 59.9282 66.9612C58.7311 67.7886 57.3409 68.3918 55.7574 68.7711ZM55.2062 64.6128C56.0639 64.4074 56.7851 64.069 57.3698 63.5976C57.971 63.1222 58.4354 62.5488 58.7629 61.8774C59.103 61.1856 59.3098 60.4471 59.3834 59.6621C59.457 58.8772 59.397 58.0805 59.2035 57.2723C59.0178 56.4971 58.6909 55.8604 58.2228 55.3621C57.7711 54.8598 57.2026 54.5251 56.5173 54.3579C55.8445 54.1702 55.071 54.1811 54.1968 54.3904C53.3556 54.5919 52.6344 54.9303 52.0332 55.4056C51.432 55.881 50.9614 56.4646 50.6213 57.1565C50.2938 57.8279 50.0932 58.5561 50.0196 59.3411C49.946 60.1261 50.006 60.9227 50.1996 61.7309C50.3813 62.4896 50.6999 63.1283 51.1555 63.6471C51.6237 64.1454 52.1942 64.4883 52.8669 64.676C53.5523 64.8432 54.3321 64.8222 55.2062 64.6128Z" fill="#FFBC00"/>
<path d="M67.246 65.6533L66.5619 47.5049L70.5947 46.5391L80.3696 56.441L78.6754 56.7945L78.215 44.714L83.0148 43.5645L83.6989 61.7129L79.6661 62.6787L69.9159 52.7708L71.5854 52.4233L72.0458 64.5038L67.246 65.6533Z" fill="#FFBC00"/>
<path d="M96.7132 58.9622C94.9648 59.3809 93.3538 59.4267 91.8802 59.0994C90.4231 58.7683 89.1954 58.1205 88.1971 57.1562C87.2113 56.1715 86.5387 54.9287 86.1792 53.4277C85.8197 51.9267 85.7518 50.478 85.9755 49.0816C86.1991 47.6851 86.6869 46.4085 87.4388 45.2518C88.1868 44.0785 89.1676 43.0763 90.3811 42.245C91.6112 41.4097 93.0509 40.7946 94.7003 40.3996C96.4322 39.9848 97.9901 39.8994 99.374 40.1435C100.774 40.3836 101.987 40.9304 103.011 41.7839L100.161 45.3963C99.414 44.8253 98.6687 44.4806 97.9253 44.3622C97.1819 44.2438 96.3566 44.2932 95.4494 44.5104C94.5588 44.7238 93.7861 45.0658 93.1315 45.5365C92.4933 46.0032 91.9838 46.57 91.6028 47.2368C91.2219 47.9035 90.9801 48.6416 90.8774 49.451C90.7873 50.24 90.845 51.0633 91.0504 51.921C91.2361 52.6962 91.5732 53.3392 92.0618 53.8501C92.5464 54.3444 93.1581 54.6775 93.8969 54.8494C94.6317 55.0047 95.4692 54.9698 96.4094 54.7447C97.1681 54.563 97.8642 54.2654 98.4977 53.8521C99.1477 53.4348 99.7582 52.8526 100.329 52.1055L103.044 55.2485C102.311 56.1216 101.403 56.8798 100.319 57.5232C99.2345 58.1665 98.0327 58.6462 96.7132 58.9622ZM98.679 55.483L98.426 48.6372L102.756 47.6003L103.044 55.2485L98.679 55.483Z" fill="#FFBC00"/>
</svg>
