<svg width="39" height="37" viewBox="0 0 39 37" fill="none" xmlns="http://www.w3.org/2000/svg">
<g clip-path="url(#clip0_2108_513)">
<path d="M36 18.5C36 28.165 28.165 36 18.5 36C8.83502 36 1 28.165 1 18.5C1 8.83502 8.83502 1 18.5 1C28.165 1 36 8.83502 36 18.5Z" stroke="#EFCFAD" stroke-width="2"/>
<path d="M36.093 12.7732C35.569 11.1626 34.832 9.64929 33.9125 8.2666L17.7188 25.1334L17.7513 27.0104L18.5157 27.0056L36.093 12.7732Z" fill="#A4907D"/>
<path d="M39 6C38.7631 4.77238 36.5 4.0001 36.5 4.0001C36.0497 3.55499 33.4503 6.05569 33 6.5008L18.073 22.0005L11.5 14.5005C11.049 14.0554 9.95066 13.5554 9.5 14.0005L7.36115 15.4298C6.91087 15.8745 6.91087 16.596 7.36115 17.0408L17.1214 26.6834C17.3815 26.9405 17.7341 27.0441 18.073 27.0041C18.4119 27.0437 18.7646 26.9405 19.0247 26.6834L37.0296 8.89449C37.4799 8.44938 39.2591 7.34266 39 6Z" fill="white"/>
<path d="M19.0243 26.6822L37.0292 8.89338C38.5 7.99996 39.4503 6.44507 39 5.99996C38.5497 5.55485 36.4909 6.74996 36.4909 6.74996L17.9698 24.9669L7.76964 15.0243L7.36116 15.4283C6.91087 15.8731 6.91087 16.5946 7.36116 17.0393L17.121 26.6822C17.3811 26.9394 17.7337 27.043 18.0727 27.003C18.4116 27.043 18.7642 26.9398 19.0243 26.6822Z" fill="#EFCFAD"/>
</g>
<defs>
<clipPath id="clip0_2108_513">
<rect width="39" height="37" fill="white"/>
</clipPath>
</defs>
</svg>
